<?xml version="1.0" encoding="UTF-8"?>
<svg width="270px" height="37px" viewBox="0 0 270 37" version="1.1" xmlns="http://www.w3.org/2000/svg" xmlns:xlink="http://www.w3.org/1999/xlink">
    <!-- Generator: Sketch 53.2 (72643) - https://sketchapp.com -->
    <title>logotipo v1</title>
    <desc>Created with Sketch.</desc>
    <defs>
        <polygon id="path-1" points="0.000176235997 0.180889474 32.6982675 0.180889474 32.6982675 28 0.000176235997 28"></polygon>
    </defs>
    <g id="Page-1" stroke="none" stroke-width="1" fill="none" fill-rule="evenodd">
        <g id="Home-final" transform="translate(-375.000000, -2640.000000)">
            <g id="footer" transform="translate(0.000000, 2303.000000)">
                <g id="logotipo-v1" transform="translate(375.000000, 337.000000)">
                    <g id="Group-3" transform="translate(0.000000, 9.000000)">
                        <mask id="mask-2" fill="white">
                            <use xlink:href="#path-1"></use>
                        </mask>
                        <g id="Clip-2"></g>
                        <path d="M0.195421875,2.29817895 L11.5556719,21.6247316 C11.6020781,21.7037579 11.6257969,21.7940737 11.6257969,21.8854158 L11.6257969,24.5446 C12.9818906,25.8942053 13.7429531,26.6506 15.0980156,28.0002053 L20.5543594,28.0002053 C20.8410469,28.0002053 21.0720469,27.7692842 21.0720469,27.4849947 L21.0720469,21.8854158 C21.0720469,21.7940737 21.0967969,21.7037579 21.1432031,21.6247316 L32.5024219,2.29817895 C33.0541406,1.36012632 32.3745469,0.180889474 31.2834844,0.180889474 L1.41642188,0.180889474 C0.324328125,0.180889474 -0.355265625,1.36012632 0.195421875,2.29817895" id="Fill-1" fill="#F7582C" mask="url(#mask-2)"></path>
                    </g>
                    <path d="M6.19705098,7.13111972 L17.6623439,26.5828814 C17.7091793,26.6634569 17.7331173,26.7543627 17.7331173,26.8463014 L17.7331173,29.5218225 C19.1017502,30.8802435 19.8698499,31.6426121 21.2374421,33 L26.7442381,33 C27.0335765,33 27.2667124,32.7686036 27.2667124,32.4824571 L27.2667124,26.8463014 C27.2667124,26.7543627 27.2916913,26.6634569 27.3385266,26.5828814 L38.8027787,7.13111972 C39.3585582,6.18693968 38.6737213,5 37.5725703,5 L7.429341,5 C6.32714917,5 5.64127153,6.18693968 6.19705098,7.13111972" id="Fill-4" fill="#FF6F5A"></path>
                    <path d="M11.1976388,4.13111972 L22.6617398,23.5828814 C22.7096153,23.6634569 22.733553,23.7543627 22.733553,23.8463014 L22.733553,26.5218225 C24.1021679,27.8802435 24.8692167,28.6426121 26.2378316,30 L31.744555,30 C32.0328487,30 32.2670224,29.7686036 32.2670224,29.4824571 L32.2670224,23.8463014 C32.2670224,23.7543627 32.2920009,23.6634569 32.3377949,23.5828814 L43.8029366,4.13111972 C44.3587087,3.18693968 43.6728401,2 42.5717036,2 L12.4288718,2 C11.3266945,2 10.640826,3.18693968 11.1976388,4.13111972" id="Fill-6" fill="#FF947C"></path>
                    <path d="M57.25,7 C56.6933834,7 56.1551842,7.08591896 55.6517735,7.24865958 C54.9263302,7.47407049 54.2694407,7.85211391 53.7220327,8.3524655 C52.8226467,9.15606047 52.2107776,10.2649205 52.0460437,11.5092291 C52.0143247,11.7305968 52,11.9560077 52,12.1864727 L52,24.8135273 C52,26.3337875 52.6630286,27.7044476 53.7220327,28.6475345 C54.2694407,29.1478861 54.9263302,29.5269403 55.6517735,29.7523512 C56.1551842,29.914081 56.6933834,30 57.25,30 L70.2609141,30 C71.7731924,30 73,28.7890481 73,27.2940582 L73,25.0389382 L73,23.1446779 C73,22.945548 72.835266,22.784829 72.6347203,22.784829 L68.3434516,22.784829 C68.1418827,22.784829 67.9781719,22.945548 67.9781719,23.1446779 L67.9781719,23.6864727 C67.9781719,24.4334622 67.3652797,25.0389382 66.6081173,25.0389382 L62.4959072,25.0389382 L58.3908595,25.0389382 C57.6357435,25.0389382 57.0218281,24.4334622 57.0218281,23.6864727 L57.0218281,13.3135273 C57.0218281,12.5665378 57.6357435,11.9610618 58.3908595,11.9610618 L62.4959072,11.9610618 L66.6081173,11.9610618 C67.3652797,11.9610618 67.9781719,12.5665378 67.9781719,13.3135273 L67.9781719,13.8553221 C67.9781719,14.054452 68.1418827,14.2161818 68.3434516,14.2161818 L72.6347203,14.2161818 C72.835266,14.2161818 73,14.054452 73,13.8553221 L73,11.9610618 L73,10.1567636 L73,9.70594181 C73,8.21196273 71.7731924,7 70.2609141,7 L57.25,7 Z" id="Fill-8" fill="#200F4A"></path>
                    <path d="M228.25,7 C227.693383,7 227.155184,7.08591896 226.651774,7.24865958 C225.92633,7.47407049 225.269441,7.85211391 224.722033,8.3524655 C223.822647,9.15606047 223.209754,10.2649205 223.046044,11.5092291 C223.014325,11.7305968 223,11.9560077 223,12.1864727 L223,24.8135273 C223,26.3337875 223.663029,27.7044476 224.722033,28.6475345 C225.269441,29.1478861 225.92633,29.5269403 226.651774,29.7523512 C227.155184,29.914081 227.693383,30 228.25,30 L241.260914,30 C242.773192,30 244,28.7890481 244,27.2940582 L244,25.0389382 L244,23.1446779 C244,22.945548 243.835266,22.784829 243.633697,22.784829 L239.343452,22.784829 C239.141883,22.784829 238.977149,22.945548 238.977149,23.1446779 L238.977149,23.6864727 C238.977149,24.4334622 238.36528,25.0389382 237.608117,25.0389382 L233.494884,25.0389382 L229.390859,25.0389382 C228.63472,25.0389382 228.021828,24.4334622 228.021828,23.6864727 L228.021828,13.3135273 C228.021828,12.5665378 228.63472,11.9610618 229.390859,11.9610618 L233.494884,11.9610618 L237.608117,11.9610618 C238.36528,11.9610618 238.977149,12.5665378 238.977149,13.3135273 L238.977149,13.8553221 C238.977149,14.054452 239.141883,14.2161818 239.343452,14.2161818 L243.633697,14.2161818 C243.835266,14.2161818 244,14.054452 244,13.8553221 L244,11.9610618 L244,10.1567636 L244,9.70594181 C244,8.21196273 242.773192,7 241.260914,7 L228.25,7 Z" id="Fill-10" fill="#200F4A"></path>
                    <path d="M116,10.8360096 L116,6.62685668 C116,6.42914492 115.832936,6.26856684 115.625946,6.26856684 L109.343724,6.26856684 C109.136733,6.26856684 108.968619,6.10798876 108.968619,5.910277 L108.968619,0.358289843 C108.968619,0.160578081 108.800504,0 108.593514,0 L104.186817,0 C103.980877,0 103.811712,0.160578081 103.811712,0.358289843 L103.811712,5.910277 C103.811712,6.10798876 103.643598,6.26856684 103.436607,6.26856684 L101.374054,6.26856684 C101.167064,6.26856684 101,6.42914492 101,6.62685668 L101,10.8360096 C101,11.0337214 101.167064,11.1942995 101.374054,11.1942995 L103.436607,11.1942995 C103.643598,11.1942995 103.811712,11.3548776 103.811712,11.5525893 L103.811712,25.6884785 C103.811712,28.0700522 105.833287,30 108.325581,30 L108.968619,30 L115.625946,30 C115.832936,30 116,29.8404255 116,29.6417102 L116,25.4325572 C116,25.2348454 115.832936,25.075271 115.625946,25.075271 L110.374475,25.075271 C109.597997,25.075271 108.968619,24.4731032 108.968619,23.7314332 L108.968619,11.5525893 C108.968619,11.3548776 109.136733,11.1942995 109.343724,11.1942995 L115.625946,11.1942995 C115.832936,11.1942995 116,11.0337214 116,10.8360096" id="Fill-12" fill="#200F4A"></path>
                    <path d="M193,10.8360096 L193,6.62685668 C193,6.42914492 192.831897,6.26856684 192.625972,6.26856684 L186.34419,6.26856684 C186.137214,6.26856684 185.969111,6.10798876 185.969111,5.910277 L185.969111,0.358289843 C185.969111,0.160578081 185.799958,0 185.594032,0 L181.187644,0 C180.980668,0 180.812566,0.160578081 180.812566,0.358289843 L180.812566,5.910277 C180.812566,6.10798876 180.644463,6.26856684 180.437487,6.26856684 L178.375079,6.26856684 C178.168103,6.26856684 178,6.42914492 178,6.62685668 L178,10.8360096 C178,11.0337214 178.168103,11.1942995 178.375079,11.1942995 L180.437487,11.1942995 C180.644463,11.1942995 180.812566,11.3548776 180.812566,11.5525893 L180.812566,25.6884785 C180.812566,28.0700522 182.832948,30 185.326119,30 L185.969111,30 L192.625972,30 C192.831897,30 193,29.8404255 193,29.6417102 L193,25.4325572 C193,25.2348454 192.831897,25.075271 192.625972,25.075271 L187.374869,25.075271 C186.598445,25.075271 185.969111,24.4731032 185.969111,23.7314332 L185.969111,11.5525893 C185.969111,11.3548776 186.137214,11.1942995 186.34419,11.1942995 L192.625972,11.1942995 C192.831897,11.1942995 193,11.0337214 193,10.8360096" id="Fill-14" fill="#200F4A"></path>
                    <path d="M151,0.358289843 L151,29.6417102 C151,29.8394219 150.837001,30 150.636308,30 L146.363692,30 C146.162999,30 146,29.8394219 146,29.6417102 L146,0.358289843 C146,0.160578081 146.162999,0 146.363692,0 L150.636308,0 C150.837001,0 151,0.160578081 151,0.358289843" id="Fill-16" fill="#200F4A"></path>
                    <path d="M161.383274,7 C158.410719,7 156,9.4451525 156,12.4624242 L156,24.6790894 C156,27.6175178 158.34796,30 161.243811,30 L170.529063,30 C173.550431,30 176,27.514415 176,24.4486244 L176,12.5736134 C176,9.49569306 173.540469,7 170.507147,7 L161.383274,7 Z M168.44409,25.0389382 L163.55591,25.0389382 C162.082582,25.0389382 160.889177,23.8279863 160.889177,22.3329964 L160.889177,14.6659928 C160.889177,13.1720137 162.082582,11.9610618 163.55591,11.9610618 L168.44409,11.9610618 C169.916422,11.9610618 171.111819,13.1720137 171.111819,14.6659928 L171.111819,22.3329964 C171.111819,23.8279863 169.916422,25.0389382 168.44409,25.0389382 L168.44409,25.0389382 Z" id="Fill-18" fill="#200F4A"></path>
                    <path d="M204.363405,11.0594181 L212.544343,11.0594181 C213.298253,11.0594181 213.908512,11.6648941 213.908512,12.4118836 L213.908512,14.6670036 C213.908512,15.4139931 213.298253,16.0204799 212.544343,16.0204799 L204.363405,16.0204799 C203.610514,16.0204799 202.999236,15.4139931 202.999236,14.6670036 L202.999236,12.4118836 C202.999236,11.6648941 203.610514,11.0594181 204.363405,11.0594181 M212.999745,23.1456887 L212.999745,24.6790894 C212.999745,24.8782192 212.835719,25.039949 212.636035,25.039949 L208.449799,25.039949 L203.363965,25.039949 C203.162243,25.039949 202.999236,24.8782192 202.999236,24.6790894 L202.999236,20.4397469 C202.999236,20.240617 203.162243,20.0788872 203.363965,20.0788872 L216.635831,20.0788872 C217.388722,20.0788872 218,19.4734113 218,18.7254109 L218,11.8620023 C218,9.17728751 215.805512,7 213.099587,7 L202.999236,7 L202.899394,7 C200.19347,7 198,9.17728751 198,11.8620023 L198,20.0788872 L198,24.7609651 C198,24.772084 198.001019,24.783203 198.001019,24.7943219 C198.001019,24.8013976 198,24.8074624 198,24.8135273 C198,25.0439923 198.013244,25.2694032 198.044827,25.4907709 C198.208853,26.7350795 198.818094,27.8449503 199.713616,28.6475345 C200.258673,29.1478861 200.91274,29.5269403 201.636086,29.7523512 C202.135296,29.914081 202.672202,30 203.227446,30 L216.635831,30 C217.388722,30 218,29.394524 218,28.6475345 L218,26.8432364 L218,25.039949 L218,23.1456887 C218,22.9465588 217.836993,22.784829 217.635271,22.784829 L213.363456,22.784829 C213.162753,22.784829 212.999745,22.9465588 212.999745,23.1456887" id="Fill-20" fill="#200F4A"></path>
                    <path d="M82.4784388,20.9805309 L92.6126297,20.9805309 C92.8152317,20.9805309 92.9789504,21.1422607 92.9789504,21.3413905 L92.9789504,25.5807331 C92.9789504,25.7798629 92.8152317,25.9415927 92.6126297,25.9415927 L82.9348049,25.9415927 C81.9269113,25.9415927 81.1083175,25.1329437 81.1083175,24.1372945 L81.1083175,22.3329964 C81.1083175,21.5860069 81.7222628,20.9805309 82.4784388,20.9805309 M98,12.1864727 C98,11.9560077 97.9866979,11.7316076 97.9549773,11.51024 L97.9549773,11.5092291 C97.7902353,10.2649205 97.1783365,9.15606047 96.2789066,8.3524655 C95.731472,7.85211391 95.0745505,7.47407049 94.3480485,7.24865958 C93.8456366,7.08591896 93.3074112,7 92.7497442,7 L80.6529747,7 C78.8868586,7 77.4573893,8.41311418 77.4573893,10.1567636 L77.4573893,11.9610618 L77.4573893,13.8553221 C77.4573893,14.054452 77.6200848,14.2161818 77.8216635,14.2161818 L82.1131414,14.2161818 C82.3147201,14.2161818 82.4784388,14.054452 82.4784388,13.8553221 L82.4784388,13.3135273 C82.4784388,12.5665378 83.0923842,11.9610618 83.8485602,11.9610618 L87.5046046,11.9610618 L92.6126297,11.9610618 C92.8152317,11.9610618 92.9789504,12.1217808 92.9789504,12.3219214 L92.9789504,16.5602531 C92.9789504,16.7603938 92.8152317,16.9211128 92.6126297,16.9211128 L81.0080398,16.9211128 C78.7947668,16.9211128 77,18.6940758 77,20.8814714 L77,25.1379977 C77,27.8237233 79.2040637,30 81.9217951,30 L96.6309019,30 C97.3870779,30 98,29.394524 98,28.6465237 L98,16.9211128 L98,12.2400457 C98,12.227916 97.9989768,12.2178079 97.9989768,12.2056781 C97.9989768,12.1996133 98,12.1935484 98,12.1864727" id="Fill-22" fill="#200F4A"></path>
                    <path d="M125.478172,20.9805309 L135.612892,20.9805309 C135.814461,20.9805309 135.978172,21.1422607 135.978172,21.3413905 L135.978172,25.5807331 C135.978172,25.7798629 135.814461,25.9415927 135.612892,25.9415927 L125.934516,25.9415927 C124.926671,25.9415927 124.109141,25.1329437 124.109141,24.1372945 L124.109141,22.3329964 C124.109141,21.5860069 124.722033,20.9805309 125.478172,20.9805309 M141,12.1864727 C141,11.9560077 140.985675,11.7316076 140.953956,11.51024 L140.953956,11.5092291 C140.789222,10.2649205 140.177353,9.15606047 139.277967,8.3524655 C138.730559,7.85211391 138.07367,7.47407049 137.348226,7.24865958 C136.844816,7.08591896 136.306617,7 135.75,7 L123.652797,7 C121.88779,7 120.457367,8.41311418 120.457367,10.1567636 L120.457367,11.9610618 L120.457367,13.8553221 C120.457367,14.054452 120.620055,14.2161818 120.821623,14.2161818 L125.113915,14.2161818 C125.315484,14.2161818 125.478172,14.054452 125.478172,13.8553221 L125.478172,13.3135273 C125.478172,12.5665378 126.092087,11.9610618 126.848226,11.9610618 L130.504093,11.9610618 L135.612892,11.9610618 C135.814461,11.9610618 135.978172,12.1217808 135.978172,12.3219214 L135.978172,16.5602531 C135.978172,16.7603938 135.814461,16.9211128 135.612892,16.9211128 L124.007844,16.9211128 C121.794679,16.9211128 120,18.6940758 120,20.8814714 L120,25.1379977 C120,27.8237233 122.203956,30 124.921555,30 L139.629945,30 C140.386085,30 141,29.394524 141,28.6465237 L141,16.9211128 L141,12.2400457 C141,12.227916 140.998977,12.2178079 140.998977,12.2056781 C140.998977,12.1996133 141,12.1935484 141,12.1864727" id="Fill-24" fill="#200F4A"></path>
                    <path d="M254.478439,20.9805309 L264.61263,20.9805309 C264.815232,20.9805309 264.97895,21.1422607 264.97895,21.3413905 L264.97895,25.5807331 C264.97895,25.7798629 264.815232,25.9415927 264.61263,25.9415927 L254.934805,25.9415927 C253.925888,25.9415927 253.108317,25.1329437 253.108317,24.1372945 L253.108317,22.3329964 C253.108317,21.5860069 253.722263,20.9805309 254.478439,20.9805309 M270,12.1864727 C270,11.9560077 269.985675,11.7316076 269.953954,11.51024 L269.953954,11.5092291 C269.790235,10.2649205 269.178337,9.15606047 268.278907,8.3524655 C267.730449,7.85211391 267.074551,7.47407049 266.348049,7.24865958 C265.845637,7.08591896 265.306388,7 264.749744,7 L252.651951,7 C250.886859,7 249.456366,8.41311418 249.456366,10.1567636 L249.456366,11.9610618 L249.456366,13.8553221 C249.456366,14.054452 249.620085,14.2161818 249.821663,14.2161818 L254.113141,14.2161818 C254.31472,14.2161818 254.478439,14.054452 254.478439,13.8553221 L254.478439,13.3135273 C254.478439,12.5665378 255.091361,11.9610618 255.847537,11.9610618 L259.504605,11.9610618 L264.61263,11.9610618 C264.815232,11.9610618 264.97895,12.1217808 264.97895,12.3219214 L264.97895,16.5602531 C264.97895,16.7603938 264.815232,16.9211128 264.61263,16.9211128 L253.00804,16.9211128 C250.793744,16.9211128 249,18.6940758 249,20.8814714 L249,25.1379977 C249,27.8237233 251.20304,30 253.920772,30 L268.629879,30 C269.386055,30 270,29.394524 270,28.6465237 L270,16.9211128 L270,12.2400457 C270,12.227916 269.998977,12.2178079 269.998977,12.2056781 C269.998977,12.1996133 270,12.1935484 270,12.1864727" id="Fill-26" fill="#200F4A"></path>
                </g>
            </g>
        </g>
    </g>
</svg>