<?xml version="1.0" encoding="UTF-8"?>
<svg width="150px" height="22px" viewBox="0 0 150 22" version="1.1" xmlns="http://www.w3.org/2000/svg" xmlns:xlink="http://www.w3.org/1999/xlink">
    <!-- Generator: Sketch 53.2 (72643) - https://sketchapp.com -->
    <title>logotipo v1</title>
    <desc>Created with Sketch.</desc>
    <defs>
        <polygon id="path-1" points="9.72400404e-05 0.193861091 18.0416085 0.193861091 18.0416085 16.4739884 9.72400404e-05 16.4739884"></polygon>
    </defs>
    <g id="Page-1" stroke="none" stroke-width="1" fill="none" fill-rule="evenodd">
        <g id="dashboard-copy" transform="translate(-82.000000, -22.000000)">
            <g id="logotipo-v1" transform="translate(82.000000, 22.000000)">
                <g id="Group-3" transform="translate(0.000000, 5.202312)">
                    <mask id="mask-2" fill="white">
                        <use xlink:href="#path-1"></use>
                    </mask>
                    <g id="Clip-2"></g>
                    <path d="M0.107826048,1.43292811 L6.37596189,12.7430934 C6.40156702,12.7893407 6.41465408,12.8421947 6.41465408,12.8956494 L6.41465408,14.4518407 C7.16289288,15.2416483 7.58281702,15.6843009 8.33048681,16.4741086 L11.3410811,16.4741086 C11.4992639,16.4741086 11.6267206,16.3389704 11.6267206,16.1726003 L11.6267206,12.8956494 C11.6267206,12.8421947 11.6403766,12.7893407 11.6659818,12.7430934 L17.9335486,1.43292811 C18.2379651,0.883966763 17.8629922,0.193861091 17.2609872,0.193861091 L0.78152547,0.193861091 C0.178951409,0.193861091 -0.196021496,0.883966763 0.107826048,1.43292811" id="Fill-1" fill="#F7582C" mask="url(#mask-2)"></path>
                </g>
                <path d="M3.14340701,4.28854071 L9.46950137,15.7331156 C9.49534326,15.7805228 9.50855134,15.8340078 9.50855134,15.8881005 L9.50855134,17.4622614 C10.2637088,18.2614975 10.6875157,18.7100422 11.4420989,19.5086705 L14.4805307,19.5086705 C14.6401762,19.5086705 14.7688114,19.3725269 14.7688114,19.2041707 L14.7688114,15.8881005 C14.7688114,15.8340078 14.7825937,15.7805228 14.8084356,15.7331156 L21.1339557,4.28854071 C21.4406128,3.73302603 21.0627469,3.03468208 20.4551754,3.03468208 L3.82333581,3.03468208 C3.21519003,3.03468208 2.83674993,3.73302603 3.14340701,4.28854071" id="Fill-4" fill="#FF6F5A"></path>
                <path d="M6.17841345,2.12091065 L12.5038501,13.5654855 C12.5302659,13.6128927 12.5434738,13.6663777 12.5434738,13.7204705 L12.5434738,15.2946313 C13.2986213,16.0938675 13.7218484,16.5424121 14.4769959,17.3410405 L17.5153877,17.3410405 C17.6744567,17.3410405 17.8036645,17.2048968 17.8036645,17.0365406 L17.8036645,13.7204705 C17.8036645,13.6663777 17.8174466,13.6128927 17.8427139,13.5654855 L24.1687249,2.12091065 C24.4753779,1.56539597 24.0969428,0.867052023 23.4893793,0.867052023 L6.85775903,0.867052023 C6.24962127,0.867052023 5.87118615,1.56539597 6.17841345,2.12091065" id="Fill-6" fill="#FF947C"></path>
                <path d="M31.9725434,4.33526012 C31.6622905,4.33526012 31.3623033,4.38546408 31.081707,4.4805563 C30.6773517,4.61226788 30.3112076,4.83316533 30.0060876,5.1255296 C29.5047783,5.59508434 29.1637282,6.24301082 29.0719071,6.97008237 C29.0542272,7.09943142 29.0462428,7.231143 29.0462428,7.36580775 L29.0462428,14.7440188 C29.0462428,15.6323337 29.4158087,16.4332346 30.0060876,16.984297 C30.3112076,17.2766613 30.6773517,17.4981493 31.081707,17.6298609 C31.3623033,17.7243625 31.6622905,17.7745665 31.9725434,17.7745665 L39.2247044,17.7745665 C40.0676341,17.7745665 40.7514451,17.0669859 40.7514451,16.1934369 L40.7514451,14.8757304 L40.7514451,13.7688806 C40.7514451,13.6525256 40.6596239,13.5586146 40.5478416,13.5586146 L38.1559288,13.5586146 C38.0435762,13.5586146 37.9523254,13.6525256 37.9523254,13.7688806 L37.9523254,14.0854609 C37.9523254,14.5219401 37.610705,14.8757304 37.1886699,14.8757304 L34.8965627,14.8757304 L32.6084477,14.8757304 C32.1875532,14.8757304 31.8453625,14.5219401 31.8453625,14.0854609 L31.8453625,8.02436566 C31.8453625,7.58788647 32.1875532,7.23409617 32.6084477,7.23409617 L34.8965627,7.23409617 L37.1886699,7.23409617 C37.610705,7.23409617 37.9523254,7.58788647 37.9523254,8.02436566 L37.9523254,8.34094596 C37.9523254,8.45730103 38.0435762,8.55180262 38.1559288,8.55180262 L40.5478416,8.55180262 C40.6596239,8.55180262 40.7514451,8.45730103 40.7514451,8.34094596 L40.7514451,7.23409617 L40.7514451,6.17981289 L40.7514451,5.91638972 C40.7514451,5.04343135 40.0676341,4.33526012 39.2247044,4.33526012 L31.9725434,4.33526012 Z" id="Fill-8" fill="#ECECEC"></path>
                <path d="M126.91474,4.33526012 C126.604487,4.33526012 126.3045,4.38546408 126.023903,4.4805563 C125.619548,4.61226788 125.253404,4.83316533 124.948284,5.1255296 C124.446975,5.59508434 124.105354,6.24301082 124.014104,6.97008237 C123.996424,7.09943142 123.988439,7.231143 123.988439,7.36580775 L123.988439,14.7440188 C123.988439,15.6323337 124.358005,16.4332346 124.948284,16.984297 C125.253404,17.2766613 125.619548,17.4981493 126.023903,17.6298609 C126.3045,17.7243625 126.604487,17.7745665 126.91474,17.7745665 L134.166901,17.7745665 C135.009831,17.7745665 135.693642,17.0669859 135.693642,16.1934369 L135.693642,14.8757304 L135.693642,13.7688806 C135.693642,13.6525256 135.60182,13.5586146 135.489468,13.5586146 L133.098125,13.5586146 C132.985773,13.5586146 132.893952,13.6525256 132.893952,13.7688806 L132.893952,14.0854609 C132.893952,14.5219401 132.552902,14.8757304 132.130866,14.8757304 L129.838189,14.8757304 L127.550644,14.8757304 C127.129179,14.8757304 126.787559,14.5219401 126.787559,14.0854609 L126.787559,8.02436566 C126.787559,7.58788647 127.129179,7.23409617 127.550644,7.23409617 L129.838189,7.23409617 L132.130866,7.23409617 C132.552902,7.23409617 132.893952,7.58788647 132.893952,8.02436566 L132.893952,8.34094596 C132.893952,8.45730103 132.985773,8.55180262 133.098125,8.55180262 L135.489468,8.55180262 C135.60182,8.55180262 135.693642,8.45730103 135.693642,8.34094596 L135.693642,7.23409617 L135.693642,6.17981289 L135.693642,5.91638972 C135.693642,5.04343135 135.009831,4.33526012 134.166901,4.33526012 L126.91474,4.33526012 Z" id="Fill-10" fill="#ECECEC"></path>
                <path d="M64.5953757,6.42017912 L64.5953757,3.92631682 C64.5953757,3.80917546 64.5036356,3.71403527 64.3899702,3.71403527 L60.9401951,3.71403527 C60.8265297,3.71403527 60.7342126,3.61889507 60.7342126,3.50175371 L60.7342126,0.212281555 C60.7342126,0.0951401926 60.6418954,0 60.52823,0 L58.1083677,0 C57.9952793,0 57.9023852,0.0951401926 57.9023852,0.212281555 L57.9023852,3.50175371 C57.9023852,3.61889507 57.8100681,3.71403527 57.6964026,3.71403527 L56.5637871,3.71403527 C56.4501216,3.71403527 56.3583815,3.80917546 56.3583815,3.92631682 L56.3583815,6.42017912 C56.3583815,6.53732048 56.4501216,6.63246067 56.5637871,6.63246067 L57.6964026,6.63246067 C57.8100681,6.63246067 57.9023852,6.72760087 57.9023852,6.84474223 L57.9023852,15.2200523 C57.9023852,16.6311003 59.0124984,17.7745665 60.3810996,17.7745665 L60.7342126,17.7745665 L64.3899702,17.7745665 C64.5036356,17.7745665 64.5953757,17.6800209 64.5953757,17.5622849 L64.5953757,15.0684226 C64.5953757,14.9512813 64.5036356,14.8567357 64.3899702,14.8567357 L61.5062144,14.8567357 C61.0798247,14.8567357 60.7342126,14.49996 60.7342126,14.0605312 L60.7342126,6.84474223 C60.7342126,6.72760087 60.8265297,6.63246067 60.9401951,6.63246067 L64.3899702,6.63246067 C64.5036356,6.63246067 64.5953757,6.53732048 64.5953757,6.42017912" id="Fill-12" fill="#ECECEC"></path>
                <path d="M107.514451,6.42017912 L107.514451,3.92631682 C107.514451,3.80917546 107.42214,3.71403527 107.30906,3.71403527 L103.859526,3.71403527 C103.745869,3.71403527 103.653558,3.61889507 103.653558,3.50175371 L103.653558,0.212281555 C103.653558,0.0951401926 103.560671,0 103.44759,0 L101.027897,0 C100.91424,0 100.821929,0.0951401926 100.821929,0.212281555 L100.821929,3.50175371 C100.821929,3.61889507 100.729618,3.71403527 100.615961,3.71403527 L99.4834248,3.71403527 C99.3697673,3.71403527 99.2774566,3.80917546 99.2774566,3.92631682 L99.2774566,6.42017912 C99.2774566,6.53732048 99.3697673,6.63246067 99.4834248,6.63246067 L100.615961,6.63246067 C100.729618,6.63246067 100.821929,6.72760087 100.821929,6.84474223 L100.821929,15.2200523 C100.821929,16.6311003 101.931388,17.7745665 103.30047,17.7745665 L103.653558,17.7745665 L107.30906,17.7745665 C107.42214,17.7745665 107.514451,17.6800209 107.514451,17.5622849 L107.514451,15.0684226 C107.514451,14.9512813 107.42214,14.8567357 107.30906,14.8567357 L104.425506,14.8567357 C103.999146,14.8567357 103.653558,14.49996 103.653558,14.0605312 L103.653558,6.84474223 C103.653558,6.72760087 103.745869,6.63246067 103.859526,6.63246067 L107.30906,6.63246067 C107.42214,6.63246067 107.514451,6.53732048 107.514451,6.42017912" id="Fill-14" fill="#ECECEC"></path>
                <path d="M84.1040462,0.212281555 L84.1040462,17.5622849 C84.1040462,17.6794263 84.0051161,17.7745665 83.8833084,17.7745665 L81.290102,17.7745665 C81.1682943,17.7745665 81.0693642,17.6794263 81.0693642,17.5622849 L81.0693642,0.212281555 C81.0693642,0.0951401926 81.1682943,0 81.290102,0 L83.8833084,0 C84.0051161,0 84.1040462,0.0951401926 84.1040462,0.212281555" id="Fill-16" fill="#ECECEC"></path>
                <path d="M90.1726546,4.33526012 C88.4973704,4.33526012 87.1387283,5.76400592 87.1387283,7.52705108 L87.1387283,14.6654644 C87.1387283,16.38244 88.4620008,17.7745665 90.0940555,17.7745665 L95.3270731,17.7745665 C97.0298671,17.7745665 98.4104046,16.3221953 98.4104046,14.5307996 L98.4104046,7.59202092 C98.4104046,5.79353767 97.0242529,4.33526012 95.3147218,4.33526012 L90.1726546,4.33526012 Z M94.1520162,14.8757304 L91.3971168,14.8757304 C90.5667731,14.8757304 89.8941892,14.1681498 89.8941892,13.2946008 L89.8941892,8.81463515 C89.8941892,7.94167677 90.5667731,7.23409617 91.3971168,7.23409617 L94.1520162,7.23409617 C94.9817984,7.23409617 95.6555052,7.94167677 95.6555052,8.81463515 L95.6555052,13.2946008 C95.6555052,14.1681498 94.9817984,14.8757304 94.1520162,14.8757304 L94.1520162,14.8757304 Z" id="Fill-18" fill="#ECECEC"></path>
                <path d="M113.701919,6.70724985 L118.312563,6.70724985 C118.737455,6.70724985 119.081387,7.06104015 119.081387,7.49751933 L119.081387,8.81522578 C119.081387,9.25170497 118.737455,9.6060859 118.312563,9.6060859 L113.701919,9.6060859 C113.277602,9.6060859 112.933095,9.25170497 112.933095,8.81522578 L112.933095,7.49751933 C112.933095,7.06104015 113.277602,6.70724985 113.701919,6.70724985 M118.569221,13.7694713 L118.569221,14.6654644 C118.569221,14.7818195 118.476778,14.8763211 118.364239,14.8763211 L116.004944,14.8763211 L113.138651,14.8763211 C113.024964,14.8763211 112.933095,14.7818195 112.933095,14.6654644 L112.933095,12.1883417 C112.933095,12.0719866 113.024964,11.977485 113.138651,11.977485 L120.61846,11.977485 C121.042777,11.977485 121.387283,11.6236947 121.387283,11.1866249 L121.387283,7.17621395 C121.387283,5.60748768 120.150505,4.33526012 118.62549,4.33526012 L112.933095,4.33526012 L112.876826,4.33526012 C111.351811,4.33526012 110.115607,5.60748768 110.115607,7.17621395 L110.115607,11.977485 L110.115607,14.7133058 C110.115607,14.7198028 110.116181,14.7262998 110.116181,14.7327968 C110.116181,14.7369312 110.115607,14.740475 110.115607,14.7440188 C110.115607,14.8786836 110.123071,15.0103952 110.140871,15.1397442 C110.233313,15.8668158 110.576671,16.5153329 111.081373,16.984297 C111.388558,17.2766613 111.75718,17.4981493 112.164846,17.6298609 C112.446193,17.7243625 112.748784,17.7745665 113.061711,17.7745665 L120.61846,17.7745665 C121.042777,17.7745665 121.387283,17.4207762 121.387283,16.984297 L121.387283,15.9300137 L121.387283,14.8763211 L121.387283,13.7694713 C121.387283,13.6531162 121.295415,13.5586146 121.181728,13.5586146 L118.774202,13.5586146 C118.661089,13.5586146 118.569221,13.6531162 118.569221,13.7694713" id="Fill-20" fill="#ECECEC"></path>
                <path d="M46.4062314,12.5043313 L52.054934,12.5043313 C52.1678624,12.5043313 52.2591177,12.5988329 52.2591177,12.715188 L52.2591177,15.1923107 C52.2591177,15.3086658 52.1678624,15.4031674 52.054934,15.4031674 L46.6606055,15.4031674 C46.0988151,15.4031674 45.6425387,14.9306595 45.6425387,14.3488841 L45.6425387,13.2946008 C45.6425387,12.8581216 45.984746,12.5043313 46.4062314,12.5043313 M55.0578035,7.36580775 C55.0578035,7.231143 55.050389,7.10002205 55.0327083,6.97067301 L55.0327083,6.97008237 C54.9408826,6.24301082 54.599816,5.59508434 54.0984822,5.1255296 C53.7933473,4.83316533 53.4271855,4.61226788 53.0222401,4.4805563 C52.7422004,4.38546408 52.4421986,4.33526012 52.1313603,4.33526012 L45.3887349,4.33526012 C44.4043184,4.33526012 43.6075456,5.1609677 43.6075456,6.17981289 L43.6075456,7.23409617 L43.6075456,8.34094596 C43.6075456,8.45730103 43.6982306,8.55180262 43.8105887,8.55180262 L46.202618,8.55180262 C46.3149761,8.55180262 46.4062314,8.45730103 46.4062314,8.34094596 L46.4062314,8.02436566 C46.4062314,7.58788647 46.7484387,7.23409617 47.1699241,7.23409617 L49.2077689,7.23409617 L52.054934,7.23409617 C52.1678624,7.23409617 52.2591177,7.32800712 52.2591177,7.44495283 L52.2591177,9.92148493 C52.2591177,10.0384306 52.1678624,10.1323416 52.054934,10.1323416 L45.5866448,10.1323416 C44.3529873,10.1323416 43.3526012,11.1683152 43.3526012,12.4464491 L43.3526012,14.9336126 C43.3526012,16.5029295 44.5811255,17.7745665 46.0959634,17.7745665 L54.2946811,17.7745665 C54.7161665,17.7745665 55.0578035,17.4207762 55.0578035,16.9837064 L55.0578035,10.1323416 L55.0578035,7.3971114 C55.0578035,7.39002378 55.0572331,7.38411743 55.0572331,7.37702982 C55.0572331,7.37348601 55.0578035,7.3699422 55.0578035,7.36580775" id="Fill-22" fill="#ECECEC"></path>
                <path d="M69.8164872,12.5043313 L75.4654849,12.5043313 C75.5778375,12.5043313 75.6690884,12.5988329 75.6690884,12.715188 L75.6690884,15.1923107 C75.6690884,15.3086658 75.5778375,15.4031674 75.4654849,15.4031674 L70.070849,15.4031674 C69.5090859,15.4031674 69.053402,14.9306595 69.053402,14.3488841 L69.053402,13.2946008 C69.053402,12.8581216 69.3950224,12.5043313 69.8164872,12.5043313 M78.4682081,7.36580775 C78.4682081,7.231143 78.4602236,7.10002205 78.4425438,6.97067301 L78.4425438,6.97008237 C78.3507226,6.24301082 78.0096726,5.59508434 77.5083633,5.1255296 C77.2032432,4.83316533 76.8370992,4.61226788 76.4327439,4.4805563 C76.1521475,4.38546408 75.8521604,4.33526012 75.5419075,4.33526012 L68.7990403,4.33526012 C67.8152421,4.33526012 67.0179378,5.1609677 67.0179378,6.17981289 L67.0179378,7.23409617 L67.0179378,8.34094596 C67.0179378,8.45730103 67.1086184,8.55180262 67.220971,8.55180262 L69.6134541,8.55180262 C69.7258067,8.55180262 69.8164872,8.45730103 69.8164872,8.34094596 L69.8164872,8.02436566 C69.8164872,7.58788647 70.1586779,7.23409617 70.5801427,7.23409617 L72.6178882,7.23409617 L75.4654849,7.23409617 C75.5778375,7.23409617 75.6690884,7.32800712 75.6690884,7.44495283 L75.6690884,9.92148493 C75.6690884,10.0384306 75.5778375,10.1323416 75.4654849,10.1323416 L68.9969406,10.1323416 C67.7633432,10.1323416 66.7630058,11.1683152 66.7630058,12.4464491 L66.7630058,14.9336126 C66.7630058,16.5029295 67.9914703,17.7745665 69.5062343,17.7745665 L77.7045526,17.7745665 C78.1260174,17.7745665 78.4682081,17.4207762 78.4682081,16.9837064 L78.4682081,10.1323416 L78.4682081,7.3971114 C78.4682081,7.39002378 78.4676378,7.38411743 78.4676378,7.37702982 C78.4676378,7.37348601 78.4682081,7.3699422 78.4682081,7.36580775" id="Fill-24" fill="#ECECEC"></path>
                <path d="M141.348428,12.5043313 L146.997131,12.5043313 C147.110059,12.5043313 147.201314,12.5988329 147.201314,12.715188 L147.201314,15.1923107 C147.201314,15.3086658 147.110059,15.4031674 146.997131,15.4031674 L141.602802,15.4031674 C141.040441,15.4031674 140.584735,14.9306595 140.584735,14.3488841 L140.584735,13.2946008 C140.584735,12.8581216 140.926943,12.5043313 141.348428,12.5043313 M150,7.36580775 C150,7.231143 149.992015,7.10002205 149.974334,6.97067301 L149.974334,6.97008237 C149.883079,6.24301082 149.542013,5.59508434 149.040679,5.1255296 C148.734974,4.83316533 148.369382,4.61226788 147.964437,4.4805563 C147.684397,4.38546408 147.383825,4.33526012 147.073557,4.33526012 L140.330361,4.33526012 C139.346515,4.33526012 138.549172,5.1609677 138.549172,6.17981289 L138.549172,7.23409617 L138.549172,8.34094596 C138.549172,8.45730103 138.640427,8.55180262 138.752785,8.55180262 L141.144815,8.55180262 C141.257173,8.55180262 141.348428,8.45730103 141.348428,8.34094596 L141.348428,8.02436566 C141.348428,7.58788647 141.690065,7.23409617 142.11155,7.23409617 L144.149965,7.23409617 L146.997131,7.23409617 C147.110059,7.23409617 147.201314,7.32800712 147.201314,7.44495283 L147.201314,9.92148493 C147.201314,10.0384306 147.110059,10.1323416 146.997131,10.1323416 L140.528841,10.1323416 C139.294613,10.1323416 138.294798,11.1683152 138.294798,12.4464491 L138.294798,14.9336126 C138.294798,16.5029295 139.522752,17.7745665 141.03759,17.7745665 L149.236307,17.7745665 C149.657793,17.7745665 150,17.4207762 150,16.9837064 L150,10.1323416 L150,7.3971114 C150,7.39002378 149.99943,7.38411743 149.99943,7.37702982 C149.99943,7.37348601 150,7.3699422 150,7.36580775" id="Fill-26" fill="#ECECEC"></path>
            </g>
        </g>
    </g>
</svg>