<?xml version="1.0" encoding="UTF-8"?>
<svg width="56px" height="48px" viewBox="0 0 56 48" version="1.1" xmlns="http://www.w3.org/2000/svg" xmlns:xlink="http://www.w3.org/1999/xlink">
    <!-- Generator: Sketch 53.2 (72643) - https://sketchapp.com -->
    <title>Group 2</title>
    <desc>Created with Sketch.</desc>
    <defs>
        <polygon id="path-1" points="0.00022430036 0.447172917 41.6159768 0.447172917 41.6159768 38 0.00022430036 38"></polygon>
    </defs>
    <g id="Page-1" stroke="none" stroke-width="1" fill="none" fill-rule="evenodd">
        <g id="style-guide" transform="translate(-190.000000, -183.000000)">
            <g id="logotipo-v1" transform="translate(190.000000, 181.000000)">
                <g id="Group-2" transform="translate(0.000000, 2.000000)">
                    <g id="Group-3" transform="translate(0.000000, 10.000000)">
                        <mask id="mask-2" fill="white">
                            <use xlink:href="#path-1"></use>
                        </mask>
                        <g id="Clip-2"></g>
                        <path d="M0.24871875,3.3052875 L14.7072188,29.3940688 C14.7662813,29.5007458 14.7964688,29.6226625 14.7964688,29.7459646 L14.7964688,33.3355792 C16.5224063,35.1574021 17.4910313,36.1784542 19.2156563,38.0002771 L26.1600938,38.0002771 C26.5249688,38.0002771 26.8189688,37.6885583 26.8189688,37.3047979 L26.8189688,29.7459646 C26.8189688,29.6226625 26.8504688,29.5007458 26.9095313,29.3940688 L41.3667188,3.3052875 C42.0689063,2.03901667 41.2039688,0.447172917 39.8153438,0.447172917 L1.80271875,0.447172917 C0.41278125,0.447172917 -0.45215625,2.03901667 0.24871875,3.3052875" id="Fill-1" fill="#F7582C" mask="url(#mask-2)"></path>
                    </g>
                    <path d="M7.25079216,7.89223391 L21.8429832,34.2910533 C21.9025918,34.4004058 21.9330584,34.5237779 21.9330584,34.6485519 L21.9330584,38.2796163 C23.6749549,40.1231876 24.6525363,41.1578307 26.3931081,43 L33.4017576,43 C33.7700064,43 34.0667249,42.685962 34.0667249,42.2976204 L34.0667249,34.6485519 C34.0667249,34.5237779 34.0985161,34.4004058 34.1581248,34.2910533 L48.7489911,7.89223391 C49.4563468,6.61084671 48.5847363,5 47.1832713,5 L8.81916128,5 C7.41637167,5 6.5434365,6.61084671 7.25079216,7.89223391" id="Fill-4" fill="#FF6F5A"></path>
                    <path d="M14.2515404,2.89223391 L28.8422143,29.2910533 C28.9031467,29.4004058 28.933613,29.5237779 28.933613,29.6485519 L28.933613,33.2796163 C30.6754864,35.1231876 31.6517303,36.1578307 33.3936038,38 L40.4021609,38 C40.7690802,38 41.0671194,37.685962 41.0671194,37.2976204 L41.0671194,29.6485519 C41.0671194,29.5237779 41.0989102,29.4004058 41.1571935,29.2910533 L55.749192,2.89223391 C56.4565383,1.61084671 55.5836147,0 54.1821682,0 L15.8185642,0 C14.4157931,0 13.5428694,1.61084671 14.2515404,2.89223391" id="Fill-6" fill="#FF947C"></path>
                </g>
            </g>
        </g>
    </g>
</svg>